<svg width="86" height="72" viewBox="0 0 86 72" fill="none" xmlns="http://www.w3.org/2000/svg">
<path d="M54.1323 10.3768L9.19568 55.7814C7.99738 56.9922 6.03256 56.9635 4.87023 55.7181L0.806834 51.3645C0.288356 50.809 0 50.0774 0 49.3175V47.7519C0 46.9508 0.320401 46.1829 0.889818 45.6194L45.8787 1.09917C47.0521 -0.0619451 48.943 -0.0569965 50.1102 1.11024L54.1213 5.12132C54.6839 5.68393 55 6.44699 55 7.24264V8.26645C55 9.05672 54.6882 9.81506 54.1323 10.3768Z" fill="#FF66C4"/>
<path d="M85.1022 52.1182C77.1583 44.3129 63.3554 30.6782 58.0198 25.162C56.878 23.9815 54.975 23.8328 53.7004 24.8684L49.1082 28.5996C48.4071 29.1692 48 30.0245 48 30.9279V31.7433C48 32.5472 48.3227 33.3176 48.8957 33.8815L77.3788 61.9125C78.553 63.0681 80.4395 63.0605 81.6044 61.8956L85.1213 58.3787C85.6839 57.8161 86 57.053 86 56.2574V54.2588C86 53.4536 85.6766 52.6825 85.1022 52.1182Z" fill="#FF66C4"/>
<path d="M62.0974 60.1174L42.4976 40.9532C41.3721 39.8527 39.5875 39.8092 38.4097 40.8536L16.2071 60.5428C14.9822 61.629 14.8543 63.4967 15.9198 64.7397L20.9221 70.5758C22.0481 71.8895 24.0491 71.9809 25.2902 70.7752L38.3791 58.0603C39.5554 56.9176 41.4312 56.9312 42.5908 58.0908L53.8043 69.3043C55.0045 70.5045 56.9606 70.4708 58.1188 69.2299L62.1932 64.8645C62.7116 64.309 63 63.5774 63 62.8175V62.2624C63 61.4551 62.6746 60.6818 62.0974 60.1174Z" fill="#FF66C4"/>
</svg>
